<svg xmlns="http://www.w3.org/2000/svg" xmlns:xlink="http://www.w3.org/1999/xlink" contentStyleType="text/css" data-diagram-type="ACTIVITY" height="468px" preserveAspectRatio="none" style="width:336px;height:468px;background:#FFFFFF;" version="1.1" viewBox="0 0 336 468" width="336px" zoomAndPan="magnify"><defs/><g><ellipse cx="195.0008" cy="20" fill="#222222" rx="10" ry="10" style="stroke:#222222;stroke-width:1;"/><rect fill="#F1F1F1" height="33.9688" rx="12.5" ry="12.5" style="stroke:#181818;stroke-width:0.5;" width="116.0007" x="137.0004" y="50"/><text fill="#000000" font-family="sans-serif" font-size="12" lengthAdjust="spacing" textLength="96.0007" x="147.0004" y="71.1387">&#27880;&#25991;&#12434;&#21463;&#12369;&#20184;&#12369;&#12427;</text><polygon fill="#F1F1F1" points="162.001,103.9688,228.0005,103.9688,240.0005,115.9688,228.0005,127.9688,162.001,127.9688,150.001,115.9688,162.001,103.9688" style="stroke:#181818;stroke-width:0.5;"/><text fill="#000000" font-family="sans-serif" font-size="11" lengthAdjust="spacing" textLength="65.9995" x="162.001" y="119.7769">&#22312;&#24235;&#12481;&#12455;&#12483;&#12463;</text><text fill="#000000" font-family="sans-serif" font-size="11" lengthAdjust="spacing" textLength="21.9998" x="128.0011" y="113.3745">&#12354;&#12426;</text><text fill="#000000" font-family="sans-serif" font-size="11" lengthAdjust="spacing" textLength="21.9998" x="240.0005" y="113.3745">&#12394;&#12375;</text><rect fill="#F1F1F1" height="33.9688" rx="12.5" ry="12.5" style="stroke:#181818;stroke-width:0.5;" width="68.0004" x="77.0002" y="137.9688"/><text fill="#000000" font-family="sans-serif" font-size="12" lengthAdjust="spacing" textLength="48.0004" x="87.0002" y="159.1074">&#27880;&#25991;&#20966;&#29702;</text><rect fill="#555555" height="6" rx="2.5" ry="2.5" style="stroke:#555555;stroke-width:1;" width="202.0008" x="11" y="191.9375"/><rect fill="#F1F1F1" height="33.9688" rx="12.5" ry="12.5" style="stroke:#181818;stroke-width:0.5;" width="80.0005" x="23" y="217.9375"/><text fill="#000000" font-family="sans-serif" font-size="12" lengthAdjust="spacing" textLength="60.0005" x="33" y="239.0762">&#12513;&#12540;&#12523;&#36865;&#20449;</text><rect fill="#F1F1F1" height="33.9688" rx="12.5" ry="12.5" style="stroke:#181818;stroke-width:0.5;" width="68.0004" x="131.0005" y="217.9375"/><text fill="#000000" font-family="sans-serif" font-size="12" lengthAdjust="spacing" textLength="48.0004" x="141.0005" y="239.0762">&#22312;&#24235;&#26356;&#26032;</text><rect fill="#555555" height="6" rx="2.5" ry="2.5" style="stroke:#555555;stroke-width:1;" width="202.0008" x="11" y="271.9063"/><rect fill="#F1F1F1" height="33.9688" rx="12.5" ry="12.5" style="stroke:#181818;stroke-width:0.5;" width="68.0004" x="77.0002" y="297.9063"/><text fill="#000000" font-family="sans-serif" font-size="12" lengthAdjust="spacing" textLength="48.0004" x="87.0002" y="319.0449">&#30330;&#36865;&#28310;&#20633;</text><rect fill="#F1F1F1" height="33.9688" rx="12.5" ry="12.5" style="stroke:#181818;stroke-width:0.5;" width="92.0005" x="233.0008" y="137.9688"/><text fill="#000000" font-family="sans-serif" font-size="12" lengthAdjust="spacing" textLength="72.0005" x="243.0008" y="159.1074">&#22312;&#24235;&#20999;&#12428;&#36890;&#30693;</text><polygon fill="#F1F1F1" points="195.0008,337.875,207.0008,349.875,195.0008,361.875,183.0008,349.875,195.0008,337.875" style="stroke:#181818;stroke-width:0.5;"/><rect fill="#F1F1F1" height="33.9688" rx="12.5" ry="12.5" style="stroke:#181818;stroke-width:0.5;" width="68.0004" x="161.0006" y="381.875"/><text fill="#000000" font-family="sans-serif" font-size="12" lengthAdjust="spacing" textLength="48.0004" x="171.0006" y="403.0137">&#20966;&#29702;&#23436;&#20102;</text><ellipse cx="195.0008" cy="446.8438" fill="#FFFFFF" fill-opacity="0.00000" rx="11" ry="11" style="stroke:#222222;stroke-width:1;"/><ellipse cx="195.0008" cy="446.8438" fill="#222222" rx="6" ry="6" style="stroke:#222222;stroke-width:1;"/><line style="stroke:#181818;stroke-width:1;" x1="195.0008" x2="195.0008" y1="30" y2="50"/><polygon fill="#181818" points="191.0008,40,195.0008,50,199.0008,40,195.0008,44" style="stroke:#181818;stroke-width:1;"/><line style="stroke:#181818;stroke-width:1;" x1="63.0002" x2="63.0002" y1="197.9375" y2="217.9375"/><polygon fill="#181818" points="59.0002,207.9375,63.0002,217.9375,67.0002,207.9375,63.0002,211.9375" style="stroke:#181818;stroke-width:1;"/><line style="stroke:#181818;stroke-width:1;" x1="165.0006" x2="165.0006" y1="197.9375" y2="217.9375"/><polygon fill="#181818" points="161.0006,207.9375,165.0006,217.9375,169.0006,207.9375,165.0006,211.9375" style="stroke:#181818;stroke-width:1;"/><line style="stroke:#181818;stroke-width:1;" x1="63.0002" x2="63.0002" y1="251.9063" y2="271.9063"/><polygon fill="#181818" points="59.0002,261.9063,63.0002,271.9063,67.0002,261.9063,63.0002,265.9063" style="stroke:#181818;stroke-width:1;"/><line style="stroke:#181818;stroke-width:1;" x1="165.0006" x2="165.0006" y1="251.9063" y2="271.9063"/><polygon fill="#181818" points="161.0006,261.9063,165.0006,271.9063,169.0006,261.9063,165.0006,265.9063" style="stroke:#181818;stroke-width:1;"/><line style="stroke:#181818;stroke-width:1;" x1="111.0004" x2="111.0004" y1="171.9375" y2="191.9375"/><polygon fill="#181818" points="107.0004,181.9375,111.0004,191.9375,115.0004,181.9375,111.0004,185.9375" style="stroke:#181818;stroke-width:1;"/><line style="stroke:#181818;stroke-width:1;" x1="111.0004" x2="111.0004" y1="277.9063" y2="297.9063"/><polygon fill="#181818" points="107.0004,287.9063,111.0004,297.9063,115.0004,287.9063,111.0004,291.9063" style="stroke:#181818;stroke-width:1;"/><line style="stroke:#181818;stroke-width:1;" x1="150.001" x2="111.0004" y1="115.9688" y2="115.9688"/><line style="stroke:#181818;stroke-width:1;" x1="111.0004" x2="111.0004" y1="115.9688" y2="137.9688"/><polygon fill="#181818" points="107.0004,127.9688,111.0004,137.9688,115.0004,127.9688,111.0004,131.9688" style="stroke:#181818;stroke-width:1;"/><line style="stroke:#181818;stroke-width:1;" x1="240.0005" x2="279.0011" y1="115.9688" y2="115.9688"/><line style="stroke:#181818;stroke-width:1;" x1="279.0011" x2="279.0011" y1="115.9688" y2="137.9688"/><polygon fill="#181818" points="275.0011,127.9688,279.0011,137.9688,283.0011,127.9688,279.0011,131.9688" style="stroke:#181818;stroke-width:1;"/><line style="stroke:#181818;stroke-width:1;" x1="111.0004" x2="111.0004" y1="331.875" y2="349.875"/><line style="stroke:#181818;stroke-width:1;" x1="111.0004" x2="183.0008" y1="349.875" y2="349.875"/><polygon fill="#181818" points="173.0008,345.875,183.0008,349.875,173.0008,353.875,177.0008,349.875" style="stroke:#181818;stroke-width:1;"/><line style="stroke:#181818;stroke-width:1;" x1="279.0011" x2="279.0011" y1="171.9375" y2="349.875"/><line style="stroke:#181818;stroke-width:1;" x1="279.0011" x2="207.0008" y1="349.875" y2="349.875"/><polygon fill="#181818" points="217.0008,345.875,207.0008,349.875,217.0008,353.875,213.0008,349.875" style="stroke:#181818;stroke-width:1;"/><line style="stroke:#181818;stroke-width:1;" x1="195.0008" x2="195.0008" y1="83.9688" y2="103.9688"/><polygon fill="#181818" points="191.0008,93.9688,195.0008,103.9688,199.0008,93.9688,195.0008,97.9688" style="stroke:#181818;stroke-width:1;"/><line style="stroke:#181818;stroke-width:1;" x1="195.0008" x2="195.0008" y1="361.875" y2="381.875"/><polygon fill="#181818" points="191.0008,371.875,195.0008,381.875,199.0008,371.875,195.0008,375.875" style="stroke:#181818;stroke-width:1;"/><line style="stroke:#181818;stroke-width:1;" x1="195.0008" x2="195.0008" y1="415.8438" y2="435.8438"/><polygon fill="#181818" points="191.0008,425.8438,195.0008,435.8438,199.0008,425.8438,195.0008,429.8438" style="stroke:#181818;stroke-width:1;"/><!--SRC=[DKvD2e905DxFAMQPLz3J28ubXOLw06S6AYhePs5PGRYefA22MbdGOPupqYsQcjgy3zxt6qPs425JNdEPz83Dn7WET5hU5-e26rh8St5Dh7DH785JO7lW7DZPm563-BW6b04R60ZZNuJexQf9rr8Fjnqq5IW6U0Ry0VpuYcdvpFuajkksvsk9Rf2hcqmk7vxupZ_0hD926MMH29PQYBH2ykaz09r_UxLLzDNwqIjULfkj4lcEvo9JZn6dKLceIM7Kxhm1]--></g></svg>