<svg xmlns="http://www.w3.org/2000/svg" xmlns:xlink="http://www.w3.org/1999/xlink" contentStyleType="text/css" data-diagram-type="DESCRIPTION" height="497px" preserveAspectRatio="none" style="width:462px;height:497px;background:#FFFFFF;" version="1.1" viewBox="0 0 462 497" width="462px" zoomAndPan="magnify"><defs/><g><!--cluster ???????--><g id="cluster_&#12501;&#12525;&#12531;&#12488;&#12456;&#12531;&#12489;"><path d="M148.5,6 L247.4996,6 A3.75,3.75 0 0 1 249.9996,8.5 L256.9996,28.2969 L303.5,28.2969 A2.5,2.5 0 0 1 306,30.7969 L306,208.1 A2.5,2.5 0 0 1 303.5,210.6 L148.5,210.6 A2.5,2.5 0 0 1 146,208.1 L146,8.5 A2.5,2.5 0 0 1 148.5,6 " fill="#FFFFFF" fill-opacity="0.00000" style="stroke:#000000;stroke-width:1.5;"/><line style="stroke:#000000;stroke-width:1.5;" x1="146" x2="256.9996" y1="28.2969" y2="28.2969"/><text fill="#000000" font-family="sans-serif" font-size="14" font-weight="bold" lengthAdjust="spacing" textLength="97.9996" x="150" y="20.9951">&#12501;&#12525;&#12531;&#12488;&#12456;&#12531;&#12489;</text></g><!--cluster ??????--><g id="cluster_&#12496;&#12483;&#12463;&#12456;&#12531;&#12489;"><path d="M8.5,259.6 L93.4996,259.6 A3.75,3.75 0 0 1 95.9996,262.1 L102.9996,281.8969 L298.5,281.8969 A2.5,2.5 0 0 1 301,284.3969 L301,479.69 A2.5,2.5 0 0 1 298.5,482.19 L8.5,482.19 A2.5,2.5 0 0 1 6,479.69 L6,262.1 A2.5,2.5 0 0 1 8.5,259.6 " fill="#FFFFFF" fill-opacity="0.00000" style="stroke:#000000;stroke-width:1.5;"/><line style="stroke:#000000;stroke-width:1.5;" x1="6" x2="102.9996" y1="281.8969" y2="281.8969"/><text fill="#000000" font-family="sans-serif" font-size="14" font-weight="bold" lengthAdjust="spacing" textLength="83.9996" x="10" y="274.5951">&#12496;&#12483;&#12463;&#12456;&#12531;&#12489;</text></g><g id="cluster_##9"><path d="M334.4587,413.4552 C336.9863,406.0115 342.1079,405.7277 347.4198,410.5013 C351.6083,404.4065 357.4289,403.4471 361.6725,410.4414 C363.8278,402.7516 370.2729,402.3932 374.7443,408.1978 C378.6885,402.0418 383.4447,401.1527 388.0075,407.5439 C392.78,401.5661 397.649,403.2233 400.3652,409.6006 C404.6798,403.6677 409.7023,404.348 413.1014,410.5606 C417.78,403.8886 423.8051,404.9607 426.9514,412.0975 C432.3525,406.6602 437.3215,407.3903 441.1598,413.9486 C448.5107,416.7368 452.1462,421.3906 445.7558,428.5146 C453.9895,430.7838 455.8025,438.138 450.0758,444.2418 C455.7308,450.9225 452.2015,458.1204 443.977,459.1066 C449.5061,465.1904 450.3981,471.9244 440.8743,475.0852 C437.9676,482.3002 431.79,483.4272 426.7375,477.371 C423.6858,483.2554 418.8466,484.6346 414.1408,479.2141 C412.056,488.0662 404.5927,487.7864 399.265,482.6669 C396.6244,488.0209 391.9685,488.9913 387.7307,484.5474 C382.4255,490.6756 376.6144,487.8417 374.1412,481.4688 C369.589,487.6137 364.2665,486.0057 360.928,480.1341 C355.7329,486.3738 349.871,485.4366 346.252,478.3928 C340.1914,482.2674 336.1827,482.0904 334.2215,474.2008 C327.0012,469.7294 326.334,464.759 333.1339,459.2666 C326.7573,454.0435 325.0986,448.3948 333.2691,443.2947 C325.6895,438.8551 325.8904,433.1265 332.286,427.8002 C325.9462,422.936 327.5922,416.3191 334.4587,413.4552 " fill="#FFFFFF" fill-opacity="0.00000" style="stroke:#181818;stroke-width:1;"/></g><!--entity Web????--><g id="elem_Web&#12502;&#12521;&#12454;&#12470;"><rect fill="#F1F1F1" height="46.2969" rx="2.5" ry="2.5" style="stroke:#181818;stroke-width:0.5;" width="127.3425" x="162.33" y="41"/><rect fill="#F1F1F1" height="10" style="stroke:#181818;stroke-width:0.5;" width="15" x="269.6725" y="46"/><rect fill="#F1F1F1" height="2" style="stroke:#181818;stroke-width:0.5;" width="4" x="267.6725" y="48"/><rect fill="#F1F1F1" height="2" style="stroke:#181818;stroke-width:0.5;" width="4" x="267.6725" y="52"/><text fill="#000000" font-family="sans-serif" font-size="14" lengthAdjust="spacing" textLength="87.3425" x="177.33" y="73.9951">Web&#12502;&#12521;&#12454;&#12470;</text></g><!--entity Next.js--><g id="elem_Next.js"><rect fill="#F1F1F1" height="46.2969" rx="2.5" ry="2.5" style="stroke:#181818;stroke-width:0.5;" width="88.4941" x="181.75" y="148.3"/><rect fill="#F1F1F1" height="10" style="stroke:#181818;stroke-width:0.5;" width="15" x="250.2441" y="153.3"/><rect fill="#F1F1F1" height="2" style="stroke:#181818;stroke-width:0.5;" width="4" x="248.2441" y="155.3"/><rect fill="#F1F1F1" height="2" style="stroke:#181818;stroke-width:0.5;" width="4" x="248.2441" y="159.3"/><text fill="#000000" font-family="sans-serif" font-size="14" lengthAdjust="spacing" textLength="48.4941" x="196.75" y="181.2951">Next.js</text></g><!--entity API????--><g id="elem_API&#12469;&#12540;&#12496;&#12540;"><rect fill="#F1F1F1" height="46.2969" rx="2.5" ry="2.5" style="stroke:#181818;stroke-width:0.5;" width="118.1482" x="166.93" y="294.6"/><rect fill="#F1F1F1" height="10" style="stroke:#181818;stroke-width:0.5;" width="15" x="265.0782" y="299.6"/><rect fill="#F1F1F1" height="2" style="stroke:#181818;stroke-width:0.5;" width="4" x="263.0782" y="301.6"/><rect fill="#F1F1F1" height="2" style="stroke:#181818;stroke-width:0.5;" width="4" x="263.0782" y="305.6"/><text fill="#000000" font-family="sans-serif" font-size="14" lengthAdjust="spacing" textLength="78.1482" x="181.93" y="327.5951">API&#12469;&#12540;&#12496;&#12540;</text></g><!--entity ??????--><g id="elem_&#35469;&#35388;&#12469;&#12540;&#12499;&#12473;"><rect fill="#F1F1F1" height="46.2969" rx="2.5" ry="2.5" style="stroke:#181818;stroke-width:0.5;" width="123.9996" x="22" y="419.89"/><rect fill="#F1F1F1" height="10" style="stroke:#181818;stroke-width:0.5;" width="15" x="125.9996" y="424.89"/><rect fill="#F1F1F1" height="2" style="stroke:#181818;stroke-width:0.5;" width="4" x="123.9996" y="426.89"/><rect fill="#F1F1F1" height="2" style="stroke:#181818;stroke-width:0.5;" width="4" x="123.9996" y="430.89"/><text fill="#000000" font-family="sans-serif" font-size="14" lengthAdjust="spacing" textLength="83.9996" x="37" y="452.8851">&#35469;&#35388;&#12469;&#12540;&#12499;&#12473;</text></g><!--entity ??????--><g id="elem_&#12487;&#12540;&#12479;&#12505;&#12540;&#12473;"><path d="M181,430.39 C181,420.39 232.9998,420.39 232.9998,420.39 C232.9998,420.39 284.9996,420.39 284.9996,430.39 L284.9996,455.6869 C284.9996,465.6869 232.9998,465.6869 232.9998,465.6869 C232.9998,465.6869 181,465.6869 181,455.6869 L181,430.39 " fill="#F1F1F1" style="stroke:#181818;stroke-width:0.5;"/><path d="M181,430.39 C181,440.39 232.9998,440.39 232.9998,440.39 C232.9998,440.39 284.9996,440.39 284.9996,430.39 " fill="#FFFFFF" fill-opacity="0.00000" style="stroke:#181818;stroke-width:0.5;"/><text fill="#000000" font-family="sans-serif" font-size="14" lengthAdjust="spacing" textLength="83.9996" x="191" y="457.3851">&#12487;&#12540;&#12479;&#12505;&#12540;&#12473;</text></g><!--entity ??API--><g id="elem_&#22806;&#37096;API"><rect fill="#F1F1F1" height="46.2969" rx="2.5" ry="2.5" style="stroke:#181818;stroke-width:0.5;" width="90.1483" x="340.93" y="419.89"/><rect fill="#F1F1F1" height="10" style="stroke:#181818;stroke-width:0.5;" width="15" x="411.0783" y="424.89"/><rect fill="#F1F1F1" height="2" style="stroke:#181818;stroke-width:0.5;" width="4" x="409.0783" y="426.89"/><rect fill="#F1F1F1" height="2" style="stroke:#181818;stroke-width:0.5;" width="4" x="409.0783" y="430.89"/><text fill="#000000" font-family="sans-serif" font-size="14" lengthAdjust="spacing" textLength="50.1483" x="355.93" y="452.8851">&#22806;&#37096;API</text></g><!--link Web???? to Next.js--><g id="link_Web&#12502;&#12521;&#12454;&#12470;_Next.js"><path d="M226,87.74 C226,105.51 226,124.14 226,141.9 " fill="#FFFFFF" fill-opacity="0.00000" id="Web&#12502;&#12521;&#12454;&#12470;-to-Next.js" style="stroke:#181818;stroke-width:1;"/><polygon fill="#181818" points="226,147.9,230,138.9,226,142.9,222,138.9,226,147.9" style="stroke:#181818;stroke-width:1;"/></g><!--link Next.js to API????--><g id="link_Next.js_API&#12469;&#12540;&#12496;&#12540;"><path d="M226,194.99 C226,222.1 226,261.32 226,288.36 " fill="#FFFFFF" fill-opacity="0.00000" id="Next.js-to-API&#12469;&#12540;&#12496;&#12540;" style="stroke:#181818;stroke-width:1;"/><polygon fill="#181818" points="226,294.36,230,285.36,226,289.36,222,285.36,226,294.36" style="stroke:#181818;stroke-width:1;"/><text fill="#000000" font-family="sans-serif" font-size="13" lengthAdjust="spacing" textLength="33.4395" x="227" y="239.6669">REST</text></g><!--link API???? to ??????--><g id="link_API&#12469;&#12540;&#12496;&#12540;_&#35469;&#35388;&#12469;&#12540;&#12499;&#12473;"><path d="M199.96,341.36 C174.33,363.61 139.9699,393.4356 114.4099,415.6356 " fill="#FFFFFF" fill-opacity="0.00000" id="API&#12469;&#12540;&#12496;&#12540;-to-&#35469;&#35388;&#12469;&#12540;&#12499;&#12473;" style="stroke:#181818;stroke-width:1;"/><polygon fill="#181818" points="109.88,419.57,119.2978,416.6883,113.6549,416.2913,114.0519,410.6484,109.88,419.57" style="stroke:#181818;stroke-width:1;"/><text fill="#000000" font-family="sans-serif" font-size="13" lengthAdjust="spacing" textLength="34.2012" x="165" y="383.9569">gRPC</text></g><!--link API???? to ??????--><g id="link_API&#12469;&#12540;&#12496;&#12540;_&#12487;&#12540;&#12479;&#12505;&#12540;&#12473;"><path d="M227.28,341.36 C228.55,363.75 230.1499,391.8096 231.4099,413.9996 " fill="#FFFFFF" fill-opacity="0.00000" id="API&#12469;&#12540;&#12496;&#12540;-to-&#12487;&#12540;&#12479;&#12505;&#12540;&#12473;" style="stroke:#181818;stroke-width:1;"/><polygon fill="#181818" points="231.75,419.99,235.2333,410.7777,231.4665,414.998,227.2462,411.2312,231.75,419.99" style="stroke:#181818;stroke-width:1;"/><text fill="#000000" font-family="sans-serif" font-size="13" lengthAdjust="spacing" textLength="25.7271" x="230" y="383.9569">SQL</text></g><!--link API???? to ??API--><g id="link_API&#12469;&#12540;&#12496;&#12540;_&#22806;&#37096;API"><path d="M255.35,341.36 C284.22,363.61 323.2773,393.7078 352.0873,415.9078 " fill="#FFFFFF" fill-opacity="0.00000" id="API&#12469;&#12540;&#12496;&#12540;-to-&#22806;&#37096;API" style="stroke:#181818;stroke-width:1;"/><polygon fill="#181818" points="356.84,419.57,352.1525,410.9082,352.8794,416.5181,347.2695,417.2451,356.84,419.57" style="stroke:#181818;stroke-width:1;"/><text fill="#000000" font-family="sans-serif" font-size="13" lengthAdjust="spacing" textLength="33.4966" x="316" y="383.9569">HTTP</text></g><!--SRC=[AqXCpavCJrLGUjmyzN7psiVDcnytTpnkMW5cT2efL7CfA4I7foOzRfxsk7dbuwPbZvksnOB4_58hIlIoYcEvQhaA46PCUDpS_BXfFRe1ZW6UZvksFcxU0rQn1sp0YrMzBrRiWGbFVjoq4oISabYIc9HO33Qi7IJJjFznyqmmOwSIqAxadFpI58YXJvTCUzcy0cWqo0qORbJGrRL3SYMS1H57Tv2LGf1hS0WNXZX4DHQdMYca1mKuuz20wNGhXU107rp68pnYfU0H4X800000]--></g></svg>