<svg xmlns="http://www.w3.org/2000/svg" xmlns:xlink="http://www.w3.org/1999/xlink" contentStyleType="text/css" data-diagram-type="STATE" height="480px" preserveAspectRatio="none" style="width:239px;height:480px;background:#FFFFFF;" version="1.1" viewBox="0 0 239 480" width="239px" zoomAndPan="magnify"><defs/><g><ellipse cx="152" cy="16" fill="#222222" rx="10" ry="10" style="stroke:#222222;stroke-width:1;"/><g id="&#26410;&#20966;&#29702;"><rect fill="#F1F1F1" height="50" rx="12.5" ry="12.5" style="stroke:#181818;stroke-width:0.5;" width="61.9998" x="121" y="87"/><line style="stroke:#181818;stroke-width:0.5;" x1="121" x2="182.9998" y1="113.2969" y2="113.2969"/><text fill="#000000" font-family="sans-serif" font-size="14" lengthAdjust="spacing" textLength="41.9998" x="131" y="104.9951">&#26410;&#20966;&#29702;</text></g><g id="&#20966;&#29702;&#20013;"><rect fill="#F1F1F1" height="50" rx="12.5" ry="12.5" style="stroke:#181818;stroke-width:0.5;" width="61.9998" x="71" y="214"/><line style="stroke:#181818;stroke-width:0.5;" x1="71" x2="132.9998" y1="240.2969" y2="240.2969"/><text fill="#000000" font-family="sans-serif" font-size="14" lengthAdjust="spacing" textLength="41.9998" x="81" y="231.9951">&#20966;&#29702;&#20013;</text></g><g id="&#23436;&#20102;"><rect fill="#F1F1F1" height="50" rx="12.5" ry="12.5" style="stroke:#181818;stroke-width:0.5;" width="50" x="7" y="341"/><line style="stroke:#181818;stroke-width:0.5;" x1="7" x2="57" y1="367.2969" y2="367.2969"/><text fill="#000000" font-family="sans-serif" font-size="14" lengthAdjust="spacing" textLength="27.9999" x="18.0001" y="358.9951">&#23436;&#20102;</text></g><g id="&#12456;&#12521;&#12540;"><rect fill="#F1F1F1" height="50" rx="12.5" ry="12.5" style="stroke:#181818;stroke-width:0.5;" width="61.9998" x="133" y="341"/><line style="stroke:#181818;stroke-width:0.5;" x1="133" x2="194.9998" y1="367.2969" y2="367.2969"/><text fill="#000000" font-family="sans-serif" font-size="14" lengthAdjust="spacing" textLength="41.9998" x="143" y="358.9951">&#12456;&#12521;&#12540;</text></g><ellipse cx="32" cy="463" fill="#FFFFFF" fill-opacity="0.00000" rx="11" ry="11" style="stroke:#222222;stroke-width:1;"/><ellipse cx="32" cy="463" fill="#222222" rx="6" ry="6" style="stroke:#222222;stroke-width:1;"/><!--link *start* to ???--><g id="link_*start*_&#26410;&#20966;&#29702;"><path d="M152,26.36 C152,40.29 152,60.95 152,80.65 " fill="#FFFFFF" fill-opacity="0.00000" id="*start*-to-&#26410;&#20966;&#29702;" style="stroke:#181818;stroke-width:1;"/><polygon fill="#181818" points="152,86.65,156,77.65,152,81.65,148,77.65,152,86.65" style="stroke:#181818;stroke-width:1;"/></g><!--link ??? to ???--><g id="link_&#26410;&#20966;&#29702;_&#20966;&#29702;&#20013;"><path d="M137.48,137.48 C132.46,146.56 127.09,157.06 123,167 C116.79,182.1 113.1066,193.8901 109.4266,207.7801 " fill="#FFFFFF" fill-opacity="0.00000" id="&#26410;&#20966;&#29702;-to-&#20966;&#29702;&#20013;" style="stroke:#181818;stroke-width:1;"/><polygon fill="#181818" points="107.89,213.58,114.0615,205.9046,109.1705,208.7468,106.3283,203.8557,107.89,213.58" style="stroke:#181818;stroke-width:1;"/><text fill="#000000" font-family="sans-serif" font-size="13" lengthAdjust="spacing" textLength="52.0001" x="124" y="180.0669">&#20966;&#29702;&#38283;&#22987;</text></g><!--link ??? to ??--><g id="link_&#20966;&#29702;&#20013;_&#23436;&#20102;"><path d="M76.37,264.35 C68.32,273.08 59.98,283.4 54,294 C45.82,308.5 41.7233,320.5813 38.2533,334.7913 " fill="#FFFFFF" fill-opacity="0.00000" id="&#20966;&#29702;&#20013;-to-&#23436;&#20102;" style="stroke:#181818;stroke-width:1;"/><polygon fill="#181818" points="36.83,340.62,42.8508,332.8258,38.0161,335.7627,35.0792,330.928,36.83,340.62" style="stroke:#181818;stroke-width:1;"/><text fill="#000000" font-family="sans-serif" font-size="13" lengthAdjust="spacing" textLength="52.0001" x="55" y="307.0669">&#20966;&#29702;&#25104;&#21151;</text></g><!--link ??? to ???--><g id="link_&#20966;&#29702;&#20013;_&#12456;&#12521;&#12540;"><path d="M106.93,264.49 C110.32,278.57 115.57,296.32 123,311 C128.26,321.4 131.8756,327.118 138.8756,335.998 " fill="#FFFFFF" fill-opacity="0.00000" id="&#20966;&#29702;&#20013;-to-&#12456;&#12521;&#12540;" style="stroke:#181818;stroke-width:1;"/><polygon fill="#181818" points="142.59,340.71,140.1597,331.1657,139.4946,336.7833,133.877,336.1183,142.59,340.71" style="stroke:#181818;stroke-width:1;"/><text fill="#000000" font-family="sans-serif" font-size="13" lengthAdjust="spacing" textLength="52.0001" x="124" y="307.0669">&#20966;&#29702;&#22833;&#25943;</text></g><!--link ??? to ???--><g id="link_&#12456;&#12521;&#12540;_&#26410;&#20966;&#29702;"><path d="M173.4,340.64 C176.47,331.49 179.48,320.91 181,311 C190.72,247.74 196.61,229.07 181,167 C178.43,156.78 176.4799,151.6034 171.4099,142.7034 " fill="#FFFFFF" fill-opacity="0.00000" id="&#12456;&#12521;&#12540;-to-&#26410;&#20966;&#29702;" style="stroke:#181818;stroke-width:1;"/><polygon fill="#181818" points="168.44,137.49,169.4192,147.2901,170.9149,141.8345,176.3705,143.3302,168.44,137.49" style="stroke:#181818;stroke-width:1;"/><text fill="#000000" font-family="sans-serif" font-size="13" lengthAdjust="spacing" textLength="39" x="192" y="243.5669">&#20877;&#35430;&#34892;</text></g><!--link ?? to *end*--><g id="link_&#23436;&#20102;_*end*"><path d="M32,391.46 C32,411.04 32,431.49 32,445.8 " fill="#FFFFFF" fill-opacity="0.00000" id="&#23436;&#20102;-to-*end*" style="stroke:#181818;stroke-width:1;"/><polygon fill="#181818" points="32,451.8,36,442.8,32,446.8,28,442.8,32,451.8" style="stroke:#181818;stroke-width:1;"/></g><!--SRC=[YzQALT3LjLDuDcVLq_PbpoUqSS5PO748yycEjGfMKFRBQTrFbtTp8IJ0ojRrFDdL1bVph6F2qwxvQ6eUDwrutBpoSVCUkBAdIpO-cpgT2o61uXAGihRU5okNlLZOmmMr0AGWMYiM0000]--></g></svg>